PathFileType	4	(X/Y/Z)	/Users/itak/Documents/Research/Walk-IL/dataset/trc/00487_00167.trc
DataRate	CameraRate	NumFrames	NumMarkers	Units	OrigDataRate	OrigDataStartFrame	OrigNumFrames
100.000000	100.000000	4	53	mm	100.000000	0	516
Frame#	Time	RPSI			LPSI			L3			STRN			T10			C7			CLAV			RBAK			LBAK			LSHO			LUPA			LAEL			LAOL			LWTS			LWPS			LFRA			LIFD			LHPS			LHTS			RSHO			RUPA			RAEL			RAOL			RWTS			RWPS			RFRA			RIFD			RHTS			RHPS			RBHD			LFHD			RFHD			LBHD			LHIP			RHIP			RASI			LASI			LKNE			LTHI			LANK			LTIP			LTOE			LMT1			LMT5			LHEE			RKNE			RTHI			RANK			RTIP			RTOE			RMT1			RMT5			RHEE			
		X1	Y1	Z1	X2	Y2	Z2	X3	Y3	Z3	X4	Y4	Z4	X5	Y5	Z5	X6	Y6	Z6	X7	Y7	Z7	X8	Y8	Z8	X9	Y9	Z9	X10	Y10	Z10	X11	Y11	Z11	X12	Y12	Z12	X13	Y13	Z13	X14	Y14	Z14	X15	Y15	Z15	X16	Y16	Z16	X17	Y17	Z17	X18	Y18	Z18	X19	Y19	Z19	X20	Y20	Z20	X21	Y21	Z21	X22	Y22	Z22	X23	Y23	Z23	X24	Y24	Z24	X25	Y25	Z25	X26	Y26	Z26	X27	Y27	Z27	X28	Y28	Z28	X29	Y29	Z29	X30	Y30	Z30	X31	Y31	Z31	X32	Y32	Z32	X33	Y33	Z33	X34	Y34	Z34	X35	Y35	Z35	X36	Y36	Z36	X37	Y37	Z37	X38	Y38	Z38	X39	Y39	Z39	X40	Y40	Z40	X41	Y41	Z41	X42	Y42	Z42	X43	Y43	Z43	X44	Y44	Z44	X45	Y45	Z45	X46	Y46	Z46	X47	Y47	Z47	X48	Y48	Z48	X49	Y49	Z49	X50	Y50	Z50	X51	Y51	Z51	X52	Y52	Z52	X53	Y53	Z53	

1	0	-1535.158569335938	966.1848754882812	-363.1129150390625	-1452.870361328125	966.4344482421875	-478.7276916503906	-1490.627563476562	1056.7392578125	-400.0176086425781	-1260.275634765625	1257.567016601562	-270.9230346679688	-1508.435791015625	1181.521606445312	-413.2649841308594	-1460.892700195312	1451.994384765625	-372.4876403808594	-1290.225219726562	1369.520751953125	-294.3110656738281	-1558.975463867188	1331.566528320312	-317.1072387695312	-1440.077026367188	1402.226684570312	-475.4332580566406	-1312.167846679688	1424.159912109375	-494.8472900390625	-1268.750366210938	1305.099243164062	-583.2724609375	-1228.586791992188	1088.23193359375	-594.9519653320312	-1329.904541015625	1071.712524414062	-581.331787109375	-1178.026977539062	891.8466796875	-502.6329956054688	-1185.674072265625	872.7144775390625	-574.2711791992188	-1202.593383789062	1001.544067382812	-587.3602905273438	-1169.138793945312	729.125	-497.4073791503906	-1174.953369140625	795.5767211914062	-565.383056640625	-1157.3212890625	806.5137939453125	-496.1818237304688	-1475.381591796875	1424.360229492188	-198.4664916992188	-1525.682983398438	1365.044799804688	-137.0941009521484	-1537.358154296875	1076.15087890625	-78.83423614501953	-1567.748168945312	1056.194213867188	-136.2223815917969	-1406.75732421875	882.3845825195312	-80.45204162597656	-1487.360595703125	860.0571899414062	-50.28131103515625	-1532.692260742188	1017.857788085938	-67.47724914550781	-1390.9736328125	727.301513671875	-70.26512908935547	-1386.46484375	787.3511352539062	-62.61802291870117	-1461.496215820312	774.7116088867188	-45.78303146362305	-1417.204833984375	1656.795043945312	-257.9733276367188	-1229.054321289062	1660.347045898438	-346.0099487304688	-1283.286254882812	1667.203857421875	-226.52734375	-1359.421508789062	1652.537841796875	-426.3486328125	-1276.03466796875	865.7998046875	-501.5021362304688	-1521.00634765625	861.230224609375	-182.4205780029297	-1395.859741210938	900.7069091796875	-175.2205200195312	-1237.735229492188	899.6050415039062	-379.7596435546875	-1297.316650390625	446.9275512695312	-482.2353820800781	-1261.797119140625	598.1807861328125	-481.8838195800781	-1366.993408203125	43.69829940795898	-528.031005859375	-1299.518432617188	300.9014282226562	-501.0826721191406	-1210.239990234375	44.29436111450195	-340.9718017578125	-1291.03076171875	49.61361694335938	-358.9920654296875	-1230.946899414062	48.45899963378906	-454.4686584472656	-1438.842163085938	47.83319473266602	-497.1367797851562	-1481.764770507812	469.0190734863281	-191.9924774169922	-1491.755249023438	726.7982177734375	-149.6808166503906	-1552.961669921875	42.49469375610352	-226.8532409667969	-1493.331909179688	325.513916015625	-185.7703094482422	-1342.154663085938	49.55976867675781	-160.6173706054688	-1379.315551757812	56.02917098999023	-223.0038299560547	-1448.922119140625	46.40445709228516	-137.6346130371094	-1585.122192382812	34.30710220336914	-299.2798461914062	
2	0.01	-1535.287475585938	966.1019897460938	-362.8100891113281	-1453.032348632812	966.3997802734375	-478.5119323730469	-1490.73095703125	1056.634887695312	-399.75537109375	-1260.287353515625	1257.567504882812	-270.7760925292969	-1508.49267578125	1181.436645507812	-413.101806640625	-1461.024536132812	1451.910034179688	-372.3937072753906	-1290.297607421875	1369.513427734375	-294.1518859863281	-1559.025634765625	1331.455810546875	-316.9623107910156	-1440.135375976562	1402.096313476562	-475.2807006835938	-1312.262573242188	1424.110961914062	-494.6636352539062	-1268.678100585938	1305.047607421875	-583.1192016601562	-1228.430053710938	1088.228515625	-594.6846313476562	-1329.726440429688	1071.706787109375	-581.1427001953125	-1177.904052734375	891.8011474609375	-502.3364868164062	-1185.375732421875	872.6879272460938	-573.9613037109375	-1202.329956054688	1001.543212890625	-587.0355224609375	-1168.842651367188	729.1036376953125	-497.1602172851562	-1174.811401367188	795.5829467773438	-565.0354614257812	-1157.1083984375	806.4791870117188	-495.830810546875	-1475.485107421875	1424.3251953125	-198.3362731933594	-1525.737182617188	1365.0146484375	-136.9597930908203	-1537.398071289062	1076.165893554688	-78.52503967285156	-1567.753173828125	1056.206909179688	-135.9845123291016	-1407.015869140625	882.2579956054688	-79.94764709472656	-1487.698364257812	860.048828125	-49.81953811645508	-1532.781616210938	1017.897155761719	-67.16392517089844	-1391.448608398438	727.1498413085938	-69.64010620117188	-1386.896362304688	787.2083129882812	-61.99776077270508	-1461.938598632812	774.6810302734375	-45.19942855834961	-1417.312377929688	1656.734375	-257.7744445800781	-1229.166015625	1660.302612304688	-345.8256225585938	-1283.444091796875	1667.07470703125	-226.3959808349609	-1359.538696289062	1652.536010742188	-426.1765441894531	-1276.101196289062	865.79248046875	-501.3296508789062	-1521.013305664062	861.1431884765625	-182.1475372314453	-1395.873901367188	900.7186279296875	-175.0141143798828	-1237.867309570312	899.5775146484375	-379.5245361328125	-1297.571655273438	446.8689270019531	-482.4452514648438	-1261.923950195312	598.1903686523438	-481.8918762207031	-1366.976684570312	43.616943359375	-528.1026000976562	-1299.533569335938	300.9761352539062	-501.1791076660156	-1210.181762695312	44.3944206237793	-341.1187438964844	-1291.007446289062	49.7825813293457	-359.1170043945312	-1230.930053710938	48.43648147583008	-454.5686950683594	-1438.822021484375	47.84404754638672	-497.2485961914062	-1481.417114257812	468.9378662109375	-191.7271575927734	-1491.469848632812	726.6806030273438	-149.4234008789062	-1552.92822265625	42.54179382324219	-226.8952789306641	-1493.011840820312	325.3648071289062	-185.5765686035156	-1342.148193359375	49.56811141967773	-160.6327972412109	-1379.294799804688	56.01159286499023	-223.0292053222656	-1448.876586914062	46.45608139038086	-137.7508392333984	-1585.1064453125	34.30348205566406	-299.3216247558594	
3	0.02	-1535.44873046875	966.0052490234375	-362.4189758300781	-1453.234252929688	966.3633422851562	-478.203125	-1490.857543945312	1056.509643554688	-399.4065856933594	-1260.307983398438	1257.564819335938	-270.5584411621094	-1508.564575195312	1181.3291015625	-412.8688659667969	-1461.17724609375	1451.801879882812	-372.2493896484375	-1290.387573242188	1369.501220703125	-293.9210510253906	-1559.08642578125	1331.321166992188	-316.7679748535156	-1440.203491210938	1401.94921875	-475.0713806152344	-1312.354736328125	1424.048706054688	-494.4080505371094	-1268.58544921875	1304.98388671875	-582.8878173828125	-1228.225952148438	1088.220825195312	-594.3373413085938	-1329.524047851562	1071.6884765625	-580.8948364257812	-1177.738647460938	891.737060546875	-501.976806640625	-1185.022094726562	872.6527709960938	-573.5803833007812	-1202.014038085938	1001.534057617188	-586.6212768554688	-1168.525390625	729.0585327148438	-496.8500671386719	-1174.593627929688	795.5874633789062	-564.6114501953125	-1156.852661132812	806.4362182617188	-495.4083251953125	-1475.612426757812	1424.284423828125	-198.1589813232422	-1525.815795898438	1364.980224609375	-136.7794647216797	-1537.470825195312	1076.189819335938	-78.13021850585938	-1567.78955078125	1056.2265625	-135.6570129394531	-1407.371826171875	882.100830078125	-79.29653167724609	-1488.146484375	860.040283203125	-49.23577499389648	-1532.923095703125	1017.948974609375	-66.75906372070312	-1392.073486328125	726.9627685546875	-68.83912658691406	-1387.464111328125	787.0333251953125	-61.20380401611328	-1462.520263671875	774.6458740234375	-44.46992492675781	-1417.45458984375	1656.654174804688	-257.5077514648438	-1229.292114257812	1660.24658203125	-345.56298828125	-1283.63525390625	1666.921142578125	-226.192626953125	-1359.676879882812	1652.529663085938	-425.9310302734375	-1276.188842773438	865.7797241210938	-501.0899353027344	-1521.02783203125	861.0287475585938	-181.7938842773438	-1395.9150390625	900.7195434570312	-174.7453460693359	-1238.019653320312	899.551513671875	-379.2300109863281	-1297.832641601562	446.8202514648438	-482.6431884765625	-1262.094116210938	598.2052612304688	-481.8773498535156	-1366.951782226562	43.51804733276367	-528.1901245117188	-1299.5576171875	301.0619506835938	-501.2830810546875	-1210.11572265625	44.51829528808594	-341.2903442382812	-1290.980590820312	49.98204040527344	-359.2663269042969	-1230.908813476562	48.40971755981445	-454.6860046386719	-1438.7978515625	47.85447692871094	-497.3726806640625	-1480.981567382812	468.8349914550781	-191.3650512695312	-1491.157836914062	726.5364990234375	-149.0783996582031	-1552.887573242188	42.59696960449219	-226.9457550048828	-1492.617309570312	325.1753234863281	-185.32373046875	-1342.140502929688	49.57997131347656	-160.6533508300781	-1379.27294921875	55.99291610717773	-223.0555114746094	-1448.82373046875	46.51777267456055	-137.8827972412109	-1585.088989257812	34.29542541503906	-299.3682861328125	
4	0.03	-1535.63671875	965.9019775390625	-361.9468383789062	-1453.467163085938	966.3248291015625	-477.7946166992188	-1491	1056.372314453125	-398.9775085449219	-1260.33984375	1257.55712890625	-270.2610473632812	-1508.646728515625	1181.20361328125	-412.5635986328125	-1461.338012695312	1451.675048828125	-372.0469360351562	-1290.488525390625	1369.483154296875	-293.6140441894531	-1559.154174804688	1331.170532226562	-316.5245056152344	-1440.27490234375	1401.798461914062	-474.8038635253906	-1312.427490234375	1423.976318359375	-494.0791625976562	-1268.474487304688	1304.912719726562	-582.5693359375	-1227.980346679688	1088.20751953125	-593.9180908203125	-1329.31396484375	1071.6533203125	-580.5919189453125	-1177.525390625	891.6578979492188	-501.5700378417969	-1184.640991210938	872.6111450195312	-573.150146484375	-1201.6689453125	1001.515197753906	-586.1370239257812	-1168.213134765625	728.9885864257812	-496.4899291992188	-1174.297973632812	795.5885620117188	-564.1395874023438	-1156.569213867188	806.3868408203125	-494.9415588378906	-1475.758178710938	1424.240478515625	-197.9331665039062	-1525.921997070312	1364.944458007812	-136.5521392822266	-1537.586181640625	1076.223999023438	-77.66169738769531	-1567.869995117188	1056.25439453125	-135.2414703369141	-1407.825317382812	881.9212036132812	-78.51819610595703	-1488.698852539062	860.033203125	-48.55210876464844	-1533.125854492188	1018.011901855469	-66.27344512939453	-1392.836059570312	726.7505493164062	-67.88864898681641	-1388.156127929688	786.8351440429688	-60.26342391967773	-1463.230102539062	774.6087646484375	-43.62642669677734	-1417.6259765625	1656.557006835938	-257.1746520996094	-1229.422973632812	1660.18115234375	-345.21826171875	-1283.848266601562	1666.755004882812	-225.9059143066406	-1359.826416015625	1652.517700195312	-425.6081237792969	-1276.30078125	865.7625122070312	-500.7827453613281	-1521.053588867188	860.8900146484375	-181.3638763427734	-1395.994506835938	900.7027587890625	-174.4171600341797	-1238.179809570312	899.5286865234375	-378.8862915039062	-1298.074829101562	446.7883605957031	-482.7955017089844	-1262.305541992188	598.226318359375	-481.8253173828125	-1366.918823242188	43.40851593017578	-528.2879638671875	-1299.59375	301.15185546875	-501.3809204101562	-1210.049682617188	44.65898132324219	-341.4714050292969	-1290.954711914062	50.19735717773438	-359.4271850585938	-1230.885498046875	48.38198852539062	-454.8101196289062	-1438.766357421875	47.85454559326172	-497.4924011230469	-1480.479125976562	468.7131958007812	-190.909912109375	-1490.848876953125	726.37109375	-148.6514129638672	-1552.84423828125	42.65465927124023	-226.9995880126953	-1492.1708984375	324.9544982910156	-185.0162506103516	-1342.132446289062	49.59469223022461	-160.6783142089844	-1379.25244140625	55.97465515136719	-223.080810546875	-1448.767578125	46.58467864990234	-138.0176086425781	-1585.072143554688	34.28240966796875	-299.4145202636719	
